<svg xmlns="http://www.w3.org/2000/svg" width="32" height="32" viewBox="0 0 32 32">
  <defs>
    <linearGradient id="gFire" x1="0" y1="0" x2="0" y2="1">
      <stop offset="0%" stop-color="#f59e0b"/>
      <stop offset="100%" stop-color="#ef4444"/>
    </linearGradient>
  </defs>
  <rect width="32" height="32" rx="16" fill="#111827"/>
  <!-- stylized flame -->
  <path d="M16 4c-3 4-1.5 6-1.5 8 0 1.7-1.5 2-1.5 3.5 0 3.3 3 6.5 6 6.5s6-3.2 6-6.5c0-1.5-1.5-1.8-1.5-3.5 0-1.8 1.5-3.6-1.5-7-0.8 1.7-2 3-4 4 0.6-2 0.5-3.7-2-5z" fill="url(#gFire)"/>
  <!-- inner flame -->
  <path d="M18 11c-1.5 2-0.8 3-0.8 4 0 1-0.8 1.2-0.8 2.2 0 1.8 1.6 3.3 3.2 3.3s3.2-1.5 3.2-3.3c0-1-0.8-1.2-0.8-2.2 0-1.1 0.8-2.2-0.8-4-0.4 1-1 1.6-2.0 2 0.3-1 0.2-1.8-1-2.8z" fill="#fde68a" opacity="0.8"/>
</svg>
